/* XPM */
static char * collectibles_xpm[] = {
"16 16 4 1",
" 	c None",
".	c #1A1A1A",
"+	c #F0BE68",
"@	c #D7DED4",
"                ",
"      ....      ",
"     .+@++.     ",
"    .+@++@@.    ",
"   .+@++@@++.   ",
"   .@++@@+++.   ",
"   .++@@++++.   ",
"   .+@@+++++.   ",
"    .@+++++.    ",
"     .++++.     ",
"      ....      ",
"                ",
"                ",
"                ",
"                ",
"                "};
