/* XPM */
static char * empty_xpm[] = {
"16 16 4 1",
" 	c #016672",
".	c #003036",
"+	c #037F8C",
"@	c #47C1CE",
"               .",
" +++++++++++++@.",
" +++++++++++++@.",
" +++++++++++++@.",
" +++++++++++++@.",
" +++++++++++++@.",
" +++++++++++++@.",
" +++++++++++++@.",
" +++++++++++++@.",
" +++++++++++++@.",
" +++++++++++++@.",
" +++++++++++++@.",
" +++++++++++++@.",
" +++++++++++++@.",
" @@@@@@@@@@@@@@.",
"................"};
