/* XPM */
static char * player_xpm[] = {
"32 32 8 1",
" 	c None",
".	c #000000",
"+	c #BF0404",
"@	c #9B0016",
"#	c #D7DED4",
"$	c #151311",
"%	c #1A1A1A",
"&	c #1E1D1C",
"                                ",
"                                ",
"                                ",
"                                ",
"             ........           ",
"           ..++++++++.          ",
"           .+@++++@@+.          ",
"         ..+++++++@+++.         ",
"         .++@+++@+@+++.         ",
"         .+@@@++@@@@@+.         ",
"         .@@@@++@@@@@@.         ",
"         .@@@####@#@@@.         ",
"         .@@######@#@+.         ",
"         .#@########@#.         ",
"         .#$#$####$#$#.         ",
"         ..$#$####$#$..         ",
"           $$##++###$           ",
"            $#+##+#$            ",
"            ..$##$..            ",
"           ..@+@@+@..           ",
"           .@%+@@+%@.           ",
"           .@%%@@&%@.           ",
"           .##%@@&##.           ",
"           .##%@@&##.           ",
"           ..&&&&&...           ",
"              &  &              ",
"              &  &              ",
"                                ",
"                                ",
"                                ",
"                                ",
"                                "};
