/* XPM */
static char * wall_xpm[] = {
"48 32 8 1",
" 	c #1A1A1A",
".	c #016672",
"+	c #46BFCD",
"@	c #9B0016",
"#	c #037F8C",
"$	c #003036",
"%	c #47C1CE",
"&	c #BF0404",
"                                                ",
" .............................................. ",
" .............................................. ",
" .............................................. ",
" .                                            . ",
" . ++++++++++++++++++++++++++++++++++++++++++ . ",
" . +@@@@@@@@@@@@@@@@@@@@@@@@@@@@@@@@@@@@@@@@+ . ",
" . +########################################+ . ",
" . ++++++++++++++++++++++++++++++++++++++++++ . ",
" . +@@@@@@@@@@@@@@@@@@@@@@@@@@@@@@@@@@@@@@@@+ . ",
" . +########################################+ . ",
" . ++++++++++++++++++++++++++++++++++++++++++ . ",
" .....$.$$$$$$$$$$$$$$$$...$$$$$$$$$..$$$$$$... ",
" .......$$$$$$$$$$$$$$$.$..$$$$$$$....$$$$$.... ",
" .......$$$.$$$..$$$$.$.$....$$$$$.....$$$$.... ",
" ........$$..$$..$..$...........$$. ...$$$..... ",
" ........$$.$.$..$..$...........$..$....$$..... ",
" ........$.$.....$...... .......$..$....$...... ",
" .....$....$.....$......$......$...$........... ",
" .....$....$....$$.........$...$............... ",
" .....$....$....$..........$................... ",
" ..........$....$...................$..      .. ",
" ...............$.................$.... %%%% .. ",
" ....+....$$$.......................... %%%% .. ",
" ....+$.$$............................. #### .. ",
" ...+$$$$.............................. #&&# .. ",
" ...$  $............................... #### .. ",
" .++$ @&&&&&&&&&&&&&&&&&&&&&&&&&&&&&&&&&#&&# .. ",
" .$+$$$+++............................. #### .. ",
" ..$$..$$.............................. #### .. ",
" .$$........................................... ",
" .............................................. "};
